<?xml version="1.0" encoding="iso-8859-1"?>
<!-- Generator: Adobe Illustrator 19.0.0, SVG Export Plug-In . SVG Version: 6.00 Build 0)  -->
<svg version="1.1" id="Layer_1" xmlns="http://www.w3.org/2000/svg" xmlns:xlink="http://www.w3.org/1999/xlink" x="0px" y="0px"
	 viewBox="0 0 512 512" style="enable-background:new 0 0 512 512;" xml:space="preserve">
<g>
	<path style="fill:#355468;" d="M184.315,321.157c-4.329,0-7.837-3.509-7.837-7.837V185.344c0-4.328,3.508-7.837,7.837-7.837
		c4.329,0,7.837,3.509,7.837,7.837V313.32C192.151,317.648,188.643,321.157,184.315,321.157z"/>
	<path style="fill:#355468;" d="M356.592,109.698c-4.328,0-7.837-3.509-7.837-7.837V41.923c0-4.328,3.509-7.837,7.837-7.837
		c4.329,0,7.837,3.509,7.837,7.837v59.938C364.429,106.19,360.92,109.698,356.592,109.698z"/>
	<path style="fill:#355468;" d="M356.592,177.736c-4.328,0-7.837-3.509-7.837-7.837v-40.012c0-4.328,3.509-7.837,7.837-7.837
		c4.329,0,7.837,3.509,7.837,7.837v40.012C364.429,174.227,360.92,177.736,356.592,177.736z"/>
</g>
<path style="fill:#E28883;" d="M183.979,512c-1.724,0-3.349-0.805-4.394-2.174l-29.988-39.341c-1.473-1.931-1.508-4.595-0.088-6.565
	l29.988-41.612c1.037-1.44,2.704-2.293,4.482-2.293s3.441,0.853,4.479,2.293l29.99,41.612c1.418,1.97,1.383,4.634-0.088,6.565
	l-29.99,39.341C187.326,511.195,185.702,512,183.979,512z"/>
<g>
	<path style="fill:#EFBA50;" d="M128.3,444.054c-1.131,0-2.261-0.346-3.227-1.04l-41.655-29.959
		c-1.439-1.037-2.294-2.702-2.294-4.476s0.855-3.44,2.294-4.477l41.655-29.958c0.965-0.694,2.096-1.041,3.227-1.041
		c1.18,0,2.359,0.377,3.345,1.128l39.383,29.958c1.372,1.044,2.175,2.667,2.175,4.39c0,1.722-0.805,3.345-2.175,4.389
		l-39.383,29.959C130.659,443.678,129.48,444.054,128.3,444.054z"/>
	<path style="fill:#EFBA50;" d="M242.6,444.054c-1.131,0-2.261-0.346-3.227-1.04l-41.653-29.959
		c-1.443-1.037-2.294-2.702-2.294-4.476s0.851-3.44,2.294-4.477l41.653-29.958c0.965-0.694,2.096-1.041,3.227-1.041
		c1.18,0,2.359,0.377,3.345,1.128l39.381,29.958c1.373,1.044,2.178,2.667,2.178,4.39c0,1.722-0.805,3.345-2.178,4.389
		l-39.381,29.959C244.96,443.678,243.78,444.054,242.6,444.054z"/>
</g>
<ellipse style="fill:#8AA5B6;" cx="184.32" cy="173.213" rx="29.816" ry="29.788"/>
<g>
	<path style="fill:#E28883;" d="M356.257,254.394c-1.724,0-3.349-0.805-4.394-2.174l-29.988-39.341
		c-1.471-1.931-1.506-4.595-0.088-6.565l29.988-41.612c1.037-1.44,2.704-2.294,4.482-2.294c1.777,0,3.445,0.854,4.479,2.294
		l29.99,41.612c1.418,1.97,1.383,4.635-0.088,6.565l-29.99,39.341C359.606,253.589,357.982,254.394,356.257,254.394z"/>
	<path style="fill:#E28883;" d="M218.449,349.734l-29.99-41.612c-1.039-1.44-2.702-2.293-4.479-2.293s-3.445,0.853-4.482,2.293
		l-29.988,41.612c-1.42,1.97-1.386,4.635,0.088,6.565l23.341,30.622c3.466-1.184,7.176-1.835,11.038-1.835
		c3.863,0,7.574,0.652,11.04,1.836l23.343-30.622C219.833,354.368,219.867,351.702,218.449,349.734z"/>
	<path style="fill:#E28883;" d="M356.257,368.579c-1.724,0-3.349-0.805-4.394-2.174l-29.988-39.341
		c-1.471-1.931-1.506-4.595-0.088-6.565l29.988-41.612c1.037-1.44,2.704-2.293,4.482-2.293c1.777,0,3.445,0.853,4.479,2.293
		l29.99,41.612c1.418,1.97,1.383,4.634-0.088,6.565l-29.99,39.341C359.606,367.775,357.982,368.579,356.257,368.579z"/>
</g>
<path style="opacity:0.1;enable-background:new    ;" d="M171.451,356.299c-1.473-1.931-1.508-4.595-0.088-6.565l23.542-32.668
	l-6.446-8.944c-1.039-1.44-2.702-2.293-4.479-2.293s-3.445,0.853-4.482,2.293l-29.988,41.612c-1.42,1.97-1.386,4.635,0.088,6.565
	l29.988,39.341c1.045,1.371,2.67,2.174,4.394,2.174c1.722,0,3.347-0.805,4.392-2.174l6.534-8.571L171.451,356.299z"/>
<path style="opacity:0.1;enable-background:new    ;" d="M171.451,470.484c-1.473-1.931-1.508-4.595-0.088-6.565l23.542-32.668
	l-6.446-8.944c-1.039-1.44-2.702-2.293-4.479-2.293s-3.445,0.853-4.482,2.293l-29.988,41.612c-1.42,1.97-1.386,4.634,0.088,6.565
	l29.988,39.341c1.045,1.371,2.67,2.174,4.394,2.174c1.722,0,3.347-0.805,4.392-2.174l6.534-8.571L171.451,470.484z"/>
<path style="opacity:0.1;enable-background:new    ;" d="M342.814,212.877c-1.471-1.931-1.506-4.595-0.088-6.565l23.999-33.302
	l-5.989-8.31c-1.034-1.44-2.702-2.294-4.479-2.294c-1.777,0-3.445,0.854-4.482,2.294l-29.988,41.612
	c-1.418,1.97-1.383,4.635,0.088,6.565l29.988,39.341c1.045,1.37,2.67,2.174,4.394,2.174c1.724,0,3.349-0.805,4.392-2.174
	l6.076-7.972L342.814,212.877z"/>
<path style="opacity:0.1;enable-background:new    ;" d="M342.814,327.062c-1.471-1.931-1.506-4.595-0.088-6.565l23.999-33.302
	l-5.989-8.31c-1.034-1.44-2.702-2.293-4.479-2.293c-1.777,0-3.445,0.853-4.482,2.293l-29.988,41.612
	c-1.418,1.97-1.383,4.634,0.088,6.565l29.988,39.341c1.045,1.37,2.67,2.174,4.394,2.174c1.724,0,3.349-0.805,4.392-2.174
	l6.076-7.972L342.814,327.062z"/>
<path style="fill:#EFBA50;" d="M300.579,300.633c-1.131,0-2.263-0.346-3.229-1.04l-41.653-29.959
	c-1.441-1.037-2.296-2.702-2.296-4.476s0.855-3.44,2.296-4.476l41.653-29.958c0.966-0.694,2.098-1.04,3.229-1.04
	c1.18,0,2.357,0.377,3.345,1.128l39.381,29.958c1.372,1.044,2.175,2.667,2.175,4.389s-0.805,3.346-2.175,4.389l-39.381,29.958
	C302.937,300.257,301.759,300.633,300.579,300.633z"/>
<path style="opacity:0.1;enable-background:new    ;" d="M117.092,413.055c-1.441-1.037-2.296-2.702-2.296-4.476
	s0.855-3.44,2.296-4.477l27.666-19.897l-13.112-9.974c-0.985-0.751-2.165-1.128-3.345-1.128c-1.131,0-2.261,0.347-3.227,1.041
	l-41.655,29.958c-1.439,1.037-2.294,2.702-2.294,4.477c0,1.773,0.855,3.44,2.294,4.476l41.655,29.959
	c0.965,0.694,2.096,1.04,3.227,1.04c1.18,0,2.359-0.376,3.345-1.127l13.112-9.974L117.092,413.055z"/>
<path style="opacity:0.1;enable-background:new    ;" d="M289.369,269.635c-1.441-1.037-2.296-2.702-2.296-4.476
	s0.855-3.44,2.296-4.476l27.666-19.897l-13.11-9.973c-0.987-0.751-2.165-1.128-3.345-1.128c-1.131,0-2.263,0.346-3.229,1.04
	l-41.653,29.958c-1.441,1.037-2.296,2.702-2.296,4.476s0.855,3.44,2.296,4.476l41.653,29.959c0.966,0.694,2.098,1.04,3.229,1.04
	c1.18,0,2.357-0.376,3.345-1.127l13.11-9.973L289.369,269.635z"/>
<path style="fill:#EFBA50;" d="M414.878,300.633c-1.131,0-2.261-0.346-3.227-1.04l-41.653-29.958
	c-1.443-1.037-2.294-2.702-2.294-4.476s0.852-3.44,2.294-4.476l41.653-29.958c0.965-0.694,2.096-1.04,3.227-1.04
	c1.18,0,2.359,0.377,3.345,1.128l39.383,29.958c1.372,1.044,2.175,2.667,2.175,4.389s-0.805,3.346-2.175,4.389l-39.383,29.958
	C417.237,300.257,416.057,300.633,414.878,300.633z"/>
<ellipse style="fill:#8AA5B6;" cx="356.592" cy="29.787" rx="29.817" ry="29.787"/>
<path style="opacity:0.1;enable-background:new    ;" d="M176.237,173.209c0-12.618,7.858-23.395,18.947-27.737
	c-3.37-1.319-7.032-2.05-10.869-2.05c-16.468,0-29.816,13.336-29.816,29.787c0,16.452,13.349,29.788,29.816,29.788
	c3.837,0,7.5-0.732,10.869-2.05C184.094,196.604,176.237,185.827,176.237,173.209z"/>
<path style="opacity:0.1;enable-background:new    ;" d="M348.514,29.787c0-12.618,7.858-23.395,18.947-27.737
	C364.094,0.732,360.428,0,356.592,0c-16.468,0-29.816,13.336-29.816,29.787s13.349,29.787,29.816,29.787
	c3.837,0,7.502-0.731,10.869-2.05C356.372,53.183,348.514,42.405,348.514,29.787z"/>
<path style="fill:#FFC753;" d="M82.041,299.15c-2.006,0-3.76-1.322-4.291-3.228c-4.231-15.142-6.937-17.812-22.259-21.992
	c-1.931-0.528-3.272-2.261-3.272-4.238c0-1.98,1.341-3.712,3.272-4.239c15.322-4.181,18.029-6.852,22.259-21.994
	c0.533-1.907,2.286-3.226,4.291-3.226c2.004,0,3.757,1.319,4.289,3.226c4.231,15.142,6.935,17.813,22.262,21.994
	c1.931,0.527,3.263,2.259,3.263,4.239c0,1.977-1.332,3.71-3.263,4.238c-15.327,4.18-18.031,6.851-22.262,21.992
	C85.798,297.828,84.045,299.15,82.041,299.15z"/>
<g>
	<path style="fill:#E5AE36;" d="M155.266,401.078h-23.192c-4.329,0-7.837,3.509-7.837,7.837s3.508,7.837,7.837,7.837h23.192
		c4.329,0,7.837-3.509,7.837-7.837S159.594,401.078,155.266,401.078z"/>
	<path style="fill:#E5AE36;" d="M235.882,401.078h-23.189c-4.329,0-7.837,3.509-7.837,7.837s3.508,7.837,7.837,7.837h23.189
		c4.329,0,7.837-3.509,7.837-7.837S240.211,401.078,235.882,401.078z"/>
</g>
<g>
	<path style="fill:#BF6060;" d="M183.977,349.226c-4.329,0-7.837,3.509-7.837,7.837v23.167c0,4.328,3.508,7.837,7.837,7.837
		c4.329,0,7.837-3.509,7.837-7.837v-23.167C191.814,352.735,188.306,349.226,183.977,349.226z"/>
	<path style="fill:#BF6060;" d="M183.977,429.762c-4.329,0-7.837,3.509-7.837,7.837v23.167c0,4.328,3.508,7.837,7.837,7.837
		c4.329,0,7.837-3.509,7.837-7.837v-23.167C191.814,433.271,188.306,429.762,183.977,429.762z"/>
</g>
<g>
	<path style="fill:#E5AE36;" d="M327.543,257.656h-23.192c-4.329,0-7.837,3.509-7.837,7.837s3.508,7.837,7.837,7.837h23.192
		c4.328,0,7.837-3.509,7.837-7.837C335.38,261.165,331.871,257.656,327.543,257.656z"/>
	<path style="fill:#E5AE36;" d="M408.161,257.656H384.97c-4.329,0-7.837,3.509-7.837,7.837s3.508,7.837,7.837,7.837h23.192
		c4.329,0,7.837-3.509,7.837-7.837C415.998,261.165,412.49,257.656,408.161,257.656z"/>
</g>
<g>
	<path style="fill:#BF6060;" d="M356.255,205.804c-4.329,0-7.837,3.509-7.837,7.837v23.169c0,4.328,3.508,7.837,7.837,7.837
		s7.837-3.509,7.837-7.837v-23.169C364.092,209.313,360.584,205.804,356.255,205.804z"/>
	<path style="fill:#BF6060;" d="M356.255,286.341c-4.329,0-7.837,3.509-7.837,7.837v23.169c0,4.328,3.508,7.837,7.837,7.837
		s7.837-3.509,7.837-7.837v-23.169C364.092,289.849,360.584,286.341,356.255,286.341z"/>
</g>
<path style="fill:#FFC753;" d="M422.804,441.398c-2.006,0-3.76-1.322-4.289-3.228c-4.233-15.142-6.939-17.813-22.262-21.992
	c-1.933-0.528-3.272-2.261-3.272-4.238c0-1.98,1.339-3.711,3.272-4.238c15.322-4.18,18.029-6.852,22.262-21.994
	c0.531-1.907,2.283-3.226,4.289-3.226c2.002,0,3.76,1.319,4.291,3.226c4.229,15.143,6.933,17.814,22.259,21.994
	c1.929,0.527,3.261,2.259,3.261,4.238c0,1.977-1.332,3.71-3.261,4.238c-15.327,4.18-18.031,6.851-22.259,21.992
	C426.563,440.077,424.806,441.398,422.804,441.398z"/>
<path style="fill:#B9F5ED;" d="M183.977,442.779c-18.875,0-34.235-15.343-34.235-34.201c0-18.858,15.359-34.201,34.235-34.201
	c18.877,0,34.235,15.342,34.235,34.201C218.212,427.436,202.855,442.779,183.977,442.779z"/>
<path style="opacity:0.1;enable-background:new    ;" d="M171.924,408.578c0-14.981,9.696-27.734,23.142-32.348
	c-3.48-1.194-7.208-1.852-11.09-1.852c-18.875,0-34.235,15.342-34.235,34.201c0,18.857,15.359,34.201,34.235,34.201
	c3.882,0,7.61-0.658,11.09-1.852C181.62,436.312,171.924,423.559,171.924,408.578z"/>
<path style="fill:#B9F5ED;" d="M356.255,299.357c-18.875,0-34.235-15.342-34.235-34.199c0-18.857,15.359-34.201,34.235-34.201
	c18.877,0,34.237,15.343,34.237,34.201C390.492,284.015,375.133,299.357,356.255,299.357z"/>
<path style="opacity:0.1;enable-background:new    ;" d="M344.202,265.157c0-14.981,9.696-27.734,23.142-32.348
	c-3.479-1.194-7.208-1.853-11.09-1.853c-18.875,0-34.235,15.343-34.235,34.201c0,18.858,15.359,34.2,34.235,34.2
	c3.882,0,7.61-0.657,11.09-1.852C353.898,292.89,344.202,280.138,344.202,265.157z"/>
<g>
</g>
<g>
</g>
<g>
</g>
<g>
</g>
<g>
</g>
<g>
</g>
<g>
</g>
<g>
</g>
<g>
</g>
<g>
</g>
<g>
</g>
<g>
</g>
<g>
</g>
<g>
</g>
<g>
</g>
</svg>
