<?xml version="1.0" encoding="iso-8859-1"?>
<!-- Generator: Adobe Illustrator 19.0.0, SVG Export Plug-In . SVG Version: 6.00 Build 0)  -->
<svg version="1.1" id="Layer_1" xmlns="http://www.w3.org/2000/svg" xmlns:xlink="http://www.w3.org/1999/xlink" x="0px" y="0px"
	 viewBox="0 0 512 512" style="enable-background:new 0 0 512 512;" xml:space="preserve">
<polygon style="fill:#FFBC2E;" points="17.526,335.987 20.408,368.668 53.089,368.668 88.555,303.306 "/>
<polygon style="fill:#FFA931;" points="159.586,335.987 88.555,303.306 48.932,321.536 53.089,368.668 159.586,368.668 "/>
<path style="fill:#B55C3F;" d="M273.271,143.333l-97.693,91.46l70.532,75.934c18.832,20.273,55.257,36.154,82.924,36.154h116.983
	v-94.101c0,0-58.837-21.08-78.45-28.107C330.763,211.486,296.046,180.185,273.271,143.333z"/>
<polygon style="fill:#F98459;" points="8.17,229.93 17.526,335.987 50.207,335.987 114.5,219.036 "/>
<polygon style="fill:#F37143;" points="159.586,229.93 114.5,219.036 40.558,226.612 50.207,335.987 159.586,335.987 "/>
<polygon style="fill:#FFBC2E;" points="8.17,197.249 8.17,229.93 40.851,229.93 51.745,213.589 40.851,197.249 "/>
<polygon style="fill:#FB9637;" points="471.149,335.987 443.346,352.327 460.255,368.668 492.936,368.668 503.83,335.987 "/>
<path style="fill:#FFA931;" d="M329.035,335.987c-24.589,0-58.208-14.657-74.943-32.674l-70.56-75.966
	c-15.152-16.315-46.765-30.097-69.031-30.097h-73.65v32.681h73.65c13.287,0,36.042,9.92,45.085,19.656l70.56,75.967
	c22.831,24.578,65.342,43.114,98.888,43.114h131.22l10.894-32.681H329.035z"/>
<path d="M510.457,331.21c-1.535-2.131-4.001-3.393-6.628-3.393h-49.642v-75.037c0-3.45-2.167-6.527-5.415-7.692l-78.45-28.107
	c-33.723-12.082-67.406-41.219-90.102-77.943c-1.289-2.084-3.443-3.481-5.872-3.804c-2.431-0.322-4.875,0.46-6.663,2.134
	l-84.117,78.751c-17.922-15.341-47.092-27.04-69.068-27.04H8.17c-2.167,0-4.244,0.861-5.778,2.393
	C0.861,193.004,0,195.082,0,197.249v32.681c0,0.24,0.011,0.479,0.032,0.718l0.011,0.114c0,0.001,0,0.003,0,0.004l9.354,106.048
	c0.001,0.003,0.001,0.007,0.001,0.011l2.873,32.56c0.371,4.218,3.904,7.452,8.139,7.452h139.178c4.513,0,8.17-3.658,8.17-8.17
	v-98.279l56.405,60.726c24.212,26.066,69.298,45.723,104.874,45.723h163.9c3.518,0,6.64-2.251,7.751-5.586l10.894-32.681
	C512.412,336.078,511.993,333.34,510.457,331.21z M271.73,155.966c24.393,35.833,58.617,64.05,93.081,76.397l73.035,26.168v69.286
	H329.034c-22.24,0-53.819-13.767-68.957-30.064l-65.022-70.002L271.73,155.966z M27.89,360.497l-1.441-16.34h124.968v16.34H27.89z
	 M487.048,360.497H329.035c-31.514,0-71.453-17.412-92.901-40.504l-70.547-75.951c-0.01-0.011-0.02-0.021-0.028-0.031
	c-10.639-11.439-35.442-22.251-51.057-22.251l-40.97-0.001c-4.512,0-8.17,3.658-8.17,8.17s3.657,8.17,8.17,8.17l40.969,0.001
	c10.148,0,28.15,7.473,36.915,14.969v74.747H25.006L17.092,238.1h23.759c4.513,0,8.17-3.658,8.17-8.17s-3.657-8.17-8.17-8.17H16.34
	v-16.34h98.16c19.985,0,49.445,12.845,63.045,27.487l70.56,75.966c18.378,19.785,53.927,35.283,80.929,35.283h163.46
	L487.048,360.497z"/>
<g>
</g>
<g>
</g>
<g>
</g>
<g>
</g>
<g>
</g>
<g>
</g>
<g>
</g>
<g>
</g>
<g>
</g>
<g>
</g>
<g>
</g>
<g>
</g>
<g>
</g>
<g>
</g>
<g>
</g>
</svg>
